<?xml version="1.0" standalone="no"?>
<!DOCTYPE svg PUBLIC "-//W3C//DTD SVG 20010904//EN"
 "http://www.w3.org/TR/2001/REC-SVG-20010904/DTD/svg10.dtd">
<svg version="1.0" xmlns="http://www.w3.org/2000/svg"
 width="174.000000pt" height="174.000000pt" viewBox="0 0 174.000000 174.000000"
 preserveAspectRatio="xMidYMid meet">
<g transform="translate(0.000000,174.000000) scale(0.100000,-0.100000)"
fill="#F1592A" stroke="none">
<path d="M0 870 l0 -870 870 0 870 0 0 870 0 870 -870 0 -870 0 0 -870z m1323
362 c26 -11 27 -14 27 -93 0 -44 -3 -79 -7 -77 -59 31 -99 42 -155 46 -61 4
-69 2 -92 -21 -51 -51 -24 -96 91 -153 97 -49 167 -114 184 -172 16 -56 0
-140 -36 -187 -56 -74 -209 -112 -339 -85 -108 22 -106 20 -106 121 l0 89 46
-29 c111 -71 254 -60 254 18 0 41 -24 65 -115 112 -137 71 -185 131 -185 231
0 97 57 173 152 204 51 16 238 14 281 -4z m-555 -269 c-3 -267 -4 -280 -27
-330 -47 -104 -151 -162 -271 -150 -92 10 -90 8 -90 103 l0 85 30 -16 c16 -8
48 -15 70 -15 101 0 110 29 110 350 l0 250 91 0 91 0 -4 -277z"/>
</g>
</svg>
